{
    "asset" : {
        "generator" : "Khronos glTF Blender I/O v3.4.50",
        "version" : "2.0"
    },
    "scene" : 0,
    "scenes" : [
        {
            "name" : "Scene",
            "nodes" : [
                0
            ]
        }
    ],
    "nodes" : [
        {
            "mesh" : 0,
            "name" : "gremlin",
            "rotation" : [
                0.70710688829422,
                0,
                0,
                0.7071066498756409
            ]
        }
    ],
    "meshes" : [
        {
            "name" : "gremlin",
            "primitives" : [
                {
                    "attributes" : {
                        "POSITION" : 0,
                        "TEXCOORD_0" : 1,
                        "NORMAL" : 2
                    },
                    "indices" : 3
                }
            ]
        }
    ],
    "accessors" : [
        {
            "bufferView" : 0,
            "componentType" : 5126,
            "count" : 74346,
            "max" : [
                0.768066942691803,
                0.7027507424354553,
                0.9899097681045532
            ],
            "min" : [
                -0.7586726546287537,
                -0.6151384115219116,
                -1.3923680782318115
            ],
            "type" : "VEC3"
        },
        {
            "bufferView" : 1,
            "componentType" : 5126,
            "count" : 74346,
            "type" : "VEC2"
        },
        {
            "bufferView" : 2,
            "componentType" : 5126,
            "count" : 74346,
            "type" : "VEC3"
        },
        {
            "bufferView" : 3,
            "componentType" : 5125,
            "count" : 74346,
            "type" : "SCALAR"
        }
    ],
    "bufferViews" : [
        {
            "buffer" : 0,
            "byteLength" : 892152,
            "byteOffset" : 0,
            "target" : 34962
        },
        {
            "buffer" : 0,
            "byteLength" : 594768,
            "byteOffset" : 892152,
            "target" : 34962
        },
        {
            "buffer" : 0,
            "byteLength" : 892152,
            "byteOffset" : 1486920,
            "target" : 34962
        },
        {
            "buffer" : 0,
            "byteLength" : 297384,
            "byteOffset" : 2379072,
            "target" : 34963
        }
    ],
    "buffers" : [
        {
            "byteLength" : 2676456,
            "uri" : "data:application/octet-stream;base64,"
        }
    ]
}
